<?xml version="1.0" encoding="UTF-8" standalone="no"?>
<!--
  -            ____           _       __    __     _____ __            ___
  -           / __ \_      __(_)___ _/ /_  / /_   / ___// /___  ______/ (_)___
  -          / / / / | /| / / / __ `/ __ \/ __/   \__ \/ __/ / / / __  / / __ \
  -         / /_/ /| |/ |/ / / /_/ / / / / /_    ___/ / /_/ /_/ / /_/ / / /_/ /
  -        /_____/ |__/|__/_/\__, /_/ /_/\__/   /____/\__/\__,_/\__,_/_/\____/
  -                         /____/
  -     Copyright (C) 2024 Dwight Studio
  -
  -     This program is free software: you can redistribute it and/or modify
  -     it under the terms of the GNU General Public License as published by
  -     the Free Software Foundation, either version 3 of the License, or
  -     (at your option) any later version.
  -
  -     This program is distributed in the hope that it will be useful,
  -     but WITHOUT ANY WARRANTY; without even the implied warranty of
  -     MERCHANTABILITY or FITNESS FOR A PARTICULAR PURPOSE.  See the
  -     GNU General Public License for more details.
  -
  -     You should have received a copy of the GNU General Public License
  -     along with this program.  If not, see <https://www.gnu.org/licenses/>.
  -->

<!-- Created with Inkscape (http://www.inkscape.org/) -->

<svg
        width="512mm"
        height="512mm"
        viewBox="0 0 512 512"
        version="1.1"
        id="svg1"
        xmlns:xlink="http://www.w3.org/1999/xlink"
        xmlns="http://www.w3.org/2000/svg"
>
  <defs
     id="defs1">
    <linearGradient
       id="linearGradient5">
      <stop
         style="stop-color:#40bf77;stop-opacity:1;"
         offset="0"
         id="stop4" />
      <stop
         style="stop-color:#43895f;stop-opacity:1;"
         offset="1"
         id="stop5" />
    </linearGradient>
    <linearGradient
       id="linearGradient7">
      <stop
         style="stop-color:#ffffff;stop-opacity:1;"
         offset="0"
         id="stop9" />
      <stop
         style="stop-color:#ffffff;stop-opacity:1;"
         offset="1"
         id="stop10" />
    </linearGradient>
    <linearGradient
       xlink:href="#linearGradient7"
       id="linearGradient8"
       x1="50"
       y1="231"
       x2="462"
       y2="231"
       gradientUnits="userSpaceOnUse"
       spreadMethod="pad" />
    <linearGradient
       xlink:href="#linearGradient5"
       id="linearGradient3"
       x1="50"
       y1="281"
       x2="462"
       y2="281"
       gradientUnits="userSpaceOnUse" />
  </defs>
  <path
     d="m 50.000049,393.44213 v 40.00015 c 0,26.90106 21.656691,48.55776 48.557759,48.55776 H 413.44195 c 26.90106,0 48.55827,-21.6567 48.55827,-48.55776 v -40.00015 c 0,26.90104 -21.65723,48.55776 -48.55827,48.55776 H 98.557808 c -26.901041,0 -48.557759,-21.65672 -48.557759,-48.55776 z"
     style="display:inline;fill:#ffffff;fill-opacity:0.700652;stroke-width:1.1864;stroke-linecap:round;stroke-linejoin:round"
     id="path4" />
  <path
     id="path3"
     style="display:inline;fill:url(#linearGradient8);stroke-width:1.1864;stroke-linecap:round;stroke-linejoin:round"
     d="m 98.557808,30.000236 c -26.90096,0 -48.557759,21.656799 -48.557759,48.55776 V 393.44213 c 0,26.90099 21.656799,48.55776 48.557759,48.55776 H 413.44195 c 26.90094,0 48.55827,-21.65677 48.55827,-48.55776 V 78.557996 c 0,-26.900961 -21.65733,-48.55776 -48.55827,-48.55776 z M 363.83722,69.999862 h 36.50372 v 9.999906 105.671072 10.00042 c 0,3.3533 -0.12082,6.62539 -0.36225,9.81697 -0.24144,3.1916 -0.60342,6.30277 -1.08521,9.3338 -0.48179,3.03103 -1.08347,5.98216 -1.80454,8.85372 -0.72107,2.87159 -1.56151,5.6635 -2.52078,8.37675 -0.95924,2.71327 -2.03753,5.34785 -3.23391,7.90391 -1.19637,2.55609 -2.51102,5.03416 -3.94343,7.43417 -1.43238,2.40004 -2.98248,4.72192 -4.64984,6.96702 -1.66736,2.2451 -3.45193,4.41323 -5.35316,6.50451 -1.9358,2.09131 -3.95389,4.05193 -6.0539,5.88181 -4.19999,3.65982 -8.72841,6.79661 -13.58521,9.4108 -2.42842,1.30709 -4.93871,2.48382 -7.53133,3.5295 -2.59259,1.04568 -5.26752,1.96079 -8.02431,2.74505 -2.75681,0.78427 -5.5958,1.43776 -8.5168,1.96061 -2.92098,0.52284 -5.92408,0.91473 -9.00927,1.17615 -3.08516,0.26143 -6.25237,0.39223 -9.50174,0.39223 -7.25922,0 -14.05176,-0.64902 -20.49436,-1.94717 -2.14753,-0.43272 -4.25629,-0.93772 -6.33036,-1.51464 v -0.28835 -0.28836 -0.28835 -0.28887 -0.28836 -0.28835 -0.28836 -0.28835 -0.28887 -0.28836 -0.28835 -0.28836 -0.28835 -0.28887 -0.28836 -0.28835 -0.28835 -0.28836 -0.28887 -0.28836 -0.28835 -0.28835 -0.28836 -0.28887 -0.28835 -0.28836 -0.28835 -0.28836 -0.28887 -0.28835 -0.28836 -0.28835 -0.28836 -0.28887 -0.19223 -0.0961 -0.19224 -0.0961 -0.19223 -0.0961 -0.19275 -0.0956 -0.19275 -0.0961 -0.19223 -0.0961 -0.19224 -0.0961 -0.19223 -0.0961 -0.19275 -0.0956 -0.19275 -0.0961 -0.19223 -0.0961 -0.19224 -0.0961 -0.19223 -0.0961 -0.19275 -0.0956 -0.19276 -0.0956 -0.19275 -0.0961 -0.19224 -0.0961 -0.19224 -0.0961 -0.19275 -0.0956 -0.19276 -0.0956 -0.19275 -0.0961 -0.19224 -0.0961 -0.19224 -0.0961 -0.19275 -0.0956 -0.19276 -0.0956 -0.19275 -0.0961 -0.19224 -0.0961 -0.19224 -0.0961 -0.19275 -0.0956 -0.19276 -0.0956 -0.19275 -0.0961 -0.19223 -0.0961 -0.19224 -0.0961 -0.19275 -0.0956 -0.19275 -0.0956 -0.19275 -0.0961 -0.19223 -0.0961 -0.19224 -0.0961 -0.19275 -0.0956 -0.19275 -0.0956 -0.19275 -0.0961 -0.19223 -0.0961 -0.19224 -0.0961 -0.19275 -0.0956 -0.19275 -0.0956 -0.19276 -0.0961 -0.19223 -0.0961 -0.19224 -0.0961 -0.19276 -0.0956 -0.19275 -0.0956 -0.19276 -0.0961 -0.19223 -0.0961 -0.19224 -0.0961 -0.19224 -0.0961 -0.19275 -0.0956 -0.19276 -0.0961 -0.19224 -0.0961 -0.19224 -0.0961 -0.19224 -0.0961 -0.19275 -0.0956 -0.19276 -0.0961 -0.19224 -0.0961 -0.19223 -0.0961 -0.19224 -0.0961 -0.19275 -0.0956 -0.19275 -0.0961 -0.19224 -0.0961 -0.19223 -0.0961 -0.19224 -0.0961 -0.19275 -0.0956 -0.19275 -0.0961 -0.19224 -0.0961 -0.19223 -0.0961 -0.19224 -0.0961 -0.19275 -0.0956 -0.19275 -0.0961 -0.19224 -0.0961 -0.19223 -0.0961 -0.19224 -0.0961 -0.19276 -0.0956 -0.19275 -0.0961 -0.19224 -0.0961 -0.19224 -0.0961 -0.19224 -0.0961 -0.19276 -0.0956 -0.19275 -0.0961 -0.19224 -0.0961 -0.19224 -0.28835 -0.28888 -0.28835 -0.28836 -0.28835 -0.28835 -0.28888 -0.28835 -0.28835 -0.0961 -0.19224 -0.28835 -0.28887 -0.28836 -0.28835 -0.28836 -0.28835 -0.28887 -0.28836 -0.28835 -0.28836 -0.28835 -0.28887 -0.28836 -0.28835 -0.28836 -0.28835 -0.28887 -0.28836 -0.28835 -0.28836 -0.28835 -0.28887 -0.28836 -0.28835 -2.88458 c 7.19011,3.74993 16.03956,5.4808 26.82472,5.4808 15.76294,0 27.93096,-4.90362 36.22724,-14.9996 8.29629,-10.09596 12.44472,-23.36548 12.44472,-39.51903 V 115.48029 105.48038 79.999768 Z M 261.75818,304.99999 v 9.9999 11.7719 9.9999 c -1.66435,0 -3.27234,0.12356 -4.82709,0.36535 -1.55476,0.2418 -3.05648,0.60203 -4.50722,1.07436 -1.45075,0.47233 -2.85051,1.05711 -4.20285,1.74873 -1.3523,0.69162 -2.65704,1.48986 -3.91655,2.38952 -1.25952,0.94463 -2.36162,2.00163 -3.30626,3.17396 -0.94464,1.17233 -1.73185,2.46025 -2.36161,3.86592 -0.62977,1.40564 -1.10209,2.92923 -1.41697,4.57388 -0.31489,1.64465 -0.47232,3.41015 -0.47232,5.29942 v 36.78225 9.9999 h -21.95112 v -9.9999 -78.70579 -10.00043 h 21.95112 v 10.00043 0.25579 c 3.05881,-5.03805 6.65783,-8.27656 10.79624,-10.07587 3.95847,-1.61936 8.81672,-2.51922 14.21463,-2.51922 z m -115.51594,0.17983 c 5.9377,0 11.51536,1.43939 16.73334,3.95842 4.95001,2.65178 8.84138,6.00907 11.36572,10.22108 l -0.03,-2.02003 h 0.14728 l -0.14728,-10.00043 h 21.7718 v 10.00043 78.70579 9.9999 h -21.7718 v -9.9999 -2.95486 c -0.58477,1.21453 -1.27057,2.36154 -2.05775,3.44113 -0.78718,1.07959 -1.67588,2.09186 -2.66547,3.03651 -0.9896,0.94465 -2.08013,1.82167 -3.27215,2.63136 -1.19203,0.8097 -2.48541,1.552 -3.87987,2.22674 -5.75774,2.87888 -11.33598,4.31808 -16.73386,4.31808 -13.6747,0.17993 -24.65028,-3.77882 -33.10703,-12.05559 -8.45669,-8.27677 -12.59509,-19.97214 -12.59509,-35.08623 0,-1.65929 0.0732,-3.261 0.18242,-4.83433 -0.11407,-1.6781 -0.18242,-3.39349 -0.18242,-5.16558 0,-14.7543 4.31809,-26.09009 12.95476,-34.36689 8.63666,-8.0969 19.79258,-12.0556 33.28738,-12.0556 z m 172.19414,0.54002 c 12.95499,0 21.77145,5.57774 26.26971,16.55351 6.83735,-10.79584 16.73362,-16.19384 29.68863,-16.19384 12.59515,0 21.95185,3.77885 28.24944,10.97607 6.29756,7.19724 9.35653,17.63301 9.35653,31.12782 v 9.9999 37.86178 9.9999 h -21.95163 v -9.9999 -37.86178 c 0,-3.14875 -0.31477,-6.02745 -0.9896,-8.61394 -0.33742,-1.29324 -0.76482,-2.51342 -1.28778,-3.65766 -0.52296,-1.14424 -1.14166,-2.21277 -1.86139,-3.20239 -0.6747,-0.98961 -1.43924,-1.86661 -2.29391,-2.62568 -0.85468,-0.75903 -1.79933,-1.40043 -2.83394,-1.91771 -1.0346,-0.51727 -2.15942,-0.91086 -3.37395,-1.17512 -1.21454,-0.26426 -2.519,-0.39894 -3.91346,-0.39894 -1.43944,0 -2.81156,0.13476 -4.11603,0.40462 -1.30443,0.26986 -2.54137,0.67466 -3.71088,1.2144 -1.16951,0.53974 -2.27169,1.21452 -3.30626,2.02417 -1.03457,0.80965 -2.00146,1.75435 -2.90111,2.83393 -0.89966,1.07959 -1.67581,2.20442 -2.33371,3.37964 -0.6579,1.17522 -1.19734,2.40092 -1.62471,3.68298 -0.42737,1.28206 -0.74225,2.6203 -0.95033,4.02043 -0.20807,1.40009 -0.30954,2.86205 -0.30954,4.39146 v 37.50159 9.9999 h -22.13147 v -9.9999 -37.50159 c 0,-1.52941 -0.0899,-3.01394 -0.27543,-4.44779 -0.18556,-1.43385 -0.46671,-2.81694 -0.84904,-4.14393 -0.38236,-1.32703 -0.86584,-2.59807 -1.45625,-3.80701 -0.5904,-1.20893 -1.28786,-2.35586 -2.09754,-3.43545 -0.80969,-1.07954 -1.69835,-2.02423 -2.66547,-2.83393 -0.96713,-0.8097 -2.01272,-1.48436 -3.13728,-2.02417 -1.12456,-0.53981 -2.32811,-0.945 -3.61012,-1.21491 -1.28197,-0.26991 -2.64247,-0.40463 -4.08192,-0.40463 -1.43944,0 -2.80021,0.14628 -4.08502,0.43305 -1.2848,0.28677 -2.49347,0.71412 -3.62923,1.27641 -1.1358,0.56229 -2.19861,1.25962 -3.19102,2.08618 -0.99242,0.82656 -1.91467,1.78226 -2.76934,2.86184 -0.85467,1.07958 -1.60833,2.21547 -2.25775,3.40754 -0.64941,1.19208 -1.19442,2.44045 -1.63297,3.74499 -0.43856,1.30455 -0.77063,2.66545 -0.99271,4.08244 -0.22208,1.41699 -0.33434,2.88996 -0.33434,4.41937 v 37.50159 9.9999 h -21.95164 v -9.9999 -78.88614 -9.99991 h 22.13147 l -0.1664,9.99991 h 0.1664 l -0.009,0.52399 c 2.15796,-3.99179 5.32815,-6.97157 9.54515,-8.90436 4.31835,-1.97924 8.99641,-3.05873 13.67462,-3.05873 z m -170.39477,29.07264 c -1.88927,0 -3.68884,0.15741 -5.4038,0.46664 -1.71499,0.30924 -3.34544,0.77046 -4.89738,1.3777 -1.55194,0.60723 -3.02494,1.36063 -4.42505,2.25464 -1.40011,0.89401 -2.72733,1.92845 -3.98684,3.098 -1.25951,1.21453 -2.36167,2.53035 -3.30626,3.95015 -0.94459,1.41979 -1.73139,2.94374 -2.36109,4.5744 -0.62971,1.63063 -1.10214,3.36805 -1.41697,5.21518 -0.0576,0.33773 -0.0393,0.72876 -0.0863,1.07384 0.86324,5.89798 3.23863,10.7998 7.17062,14.59135 5.03806,4.85813 11.15599,7.1975 18.71307,7.1975 6.65743,0 12.23508,-1.79941 16.73335,-5.57796 4.49826,-3.5986 7.19742,-8.09695 8.27701,-13.31495 0.19845,-0.95917 0.32099,-1.91911 0.44648,-2.87941 -0.1255,-0.98134 -0.248,-1.96193 -0.44648,-2.95434 -0.2699,-1.30449 -0.64106,-2.56405 -1.11621,-3.77858 -0.47515,-1.21453 -1.05445,-2.38426 -1.74046,-3.50883 -0.68601,-1.12456 -1.47877,-2.20396 -2.38125,-3.23856 -0.90249,-1.0346 -1.91456,-2.02418 -3.03909,-2.96881 -1.12457,-0.89965 -2.31655,-1.6979 -3.57601,-2.38952 -1.2595,-0.69162 -2.58672,-1.2764 -3.98116,-1.74873 -1.3944,-0.47233 -2.85638,-0.83256 -4.38578,-1.07435 -1.52936,-0.2418 -3.12604,-0.36536 -4.7904,-0.36536 z" />
  <path
     id="path5"
     style="font-weight:bold;font-size:179.931px;line-height:10;font-family:'Vice City Sans Bold';-inkscape-font-specification:'Vice City Sans Bold, Bold';text-align:center;text-anchor:middle;display:inline;fill:#ffffff;stroke-width:0.499278;stroke-linecap:round;stroke-linejoin:round;fill-opacity:0.70053148"
     d="m 295.05899,317.15894 -0.0134,0.79633 c 0.0507,-0.0971 0.11919,-0.17641 0.17105,-0.27234 l 0.009,-0.52399 z m -120.74767,0.18035 0.03,2.02003 c 0.0449,0.0749 0.10635,0.13949 0.15037,0.21497 l -0.0331,-2.235 z m -26.26971,7.45329 c -7.55709,0 -13.67501,2.51877 -18.71307,7.19697 -5.03806,4.85814 -7.55664,11.33594 -7.55664,19.61276 0,1.74864 0.13737,3.40817 0.36225,5.01055 0.83943,-5.9348 3.22079,-10.79171 7.19439,-14.6234 5.03805,-4.67819 11.15599,-7.19698 18.71307,-7.19698 6.65743,0 12.23508,1.97935 16.73335,5.57796 4.49826,3.77853 7.19742,8.27681 8.27701,13.49478 0.19848,0.99241 0.32098,1.973 0.44648,2.95434 0.5572,-4.26377 0.43466,-8.54858 -0.44648,-12.95424 -1.07959,-5.21799 -3.77874,-9.71676 -8.27701,-13.4953 -4.49827,-3.59862 -10.07591,-5.57744 -16.73335,-5.57744 z m 165.89633,1.43919 c -5.75778,0 -10.25593,2.33914 -13.67461,6.65747 -3.41869,4.31835 -5.21777,9.53618 -5.21777,15.65383 v 10.00042 c 0,-6.11763 1.79908,-11.33601 5.21777,-15.65434 3.41867,-4.31833 7.91685,-6.65748 13.67461,-6.65748 5.75779,0 10.25603,2.15932 13.49479,6.47764 3.23874,4.31835 4.67826,9.71655 4.67826,15.83418 v -10.00042 c 0,-6.11765 -1.43951,-11.51532 -4.67826,-15.83366 -3.23876,-4.31834 -7.73699,-6.47764 -13.49479,-6.47764 z m 59.55709,0.36018 c -5.75779,0 -10.43567,2.15879 -14.03428,6.47713 -3.59862,4.31834 -5.21829,9.35634 -5.21829,15.47399 v 10.00042 c 0,-6.11763 1.61967,-11.15617 5.21829,-15.47451 3.5986,-4.31832 8.2765,-6.47712 14.03428,-6.47712 5.57785,0 9.71632,2.15899 12.41526,6.11745 2.8789,3.95848 4.13877,9.17643 4.13877,15.47399 v -9.9999 c 0,-6.29759 -1.25987,-11.51552 -4.13877,-15.47399 -2.69895,-3.95848 -6.8374,-6.11746 -12.41526,-6.11746 z m -111.73685,0.17984 c -6.65743,0 -12.41566,1.97933 -17.45371,5.57795 -5.03807,3.77855 -7.55716,9.35609 -7.55716,16.91318 v 9.99991 c 0,-7.55709 2.5191,-13.13465 7.55716,-16.91318 5.03804,-3.59862 10.7963,-5.57796 17.45371,-5.57796 z m -161.57566,29.9961 c -0.10923,1.57333 -0.18242,3.17503 -0.18242,4.83433 0,15.11415 4.13837,26.80943 12.59509,35.08623 8.45675,8.2768 19.4323,12.23552 33.10703,12.05559 5.39791,0 10.97609,-1.4392 16.73386,-4.31808 5.57784,-2.69896 9.53615,-6.47762 11.87524,-11.33574 v -10.00043 c -2.3391,4.85814 -6.29739,8.63678 -11.87524,11.33575 -5.75778,2.87888 -11.33594,4.3186 -16.73386,4.3186 -13.67475,0.17993 -24.65027,-3.77878 -33.10703,-12.0556 -7.46521,-7.30638 -11.55384,-17.28623 -12.41267,-29.92065 z m 74.1288,39.27719 v 9.9999 h 21.7718 v -9.9999 z m 40.48487,0 v 9.9999 h 21.95112 v -9.9999 z m 58.29773,0 v 9.9999 h 21.95164 v -9.9999 z m 59.01707,0 v 9.9999 h 22.13147 v -9.9999 z m 57.93807,0 v 9.9999 h 21.95163 v -9.9999 z" />
  <path
     id="path6"
     style="font-weight:bold;font-size:282.437px;line-height:10;font-family:'Vice City Sans Bold';-inkscape-font-specification:'Vice City Sans Bold, Bold';text-align:center;text-anchor:middle;display:inline;fill:#ffffff;fill-opacity:0.70014727;stroke-width:6.76508;stroke-linecap:round;stroke-linejoin:round"
     d="m 400.34094,185.67084 c 0,26.82643 -7.74328,48.46091 -22.95312,65.19137 -15.48639,16.73047 -36.22754,25.09562 -62.22256,25.09562 -9.67899,0 -18.52844,-1.15363 -26.82472,-3.46128 v 0.19223 0.28887 0.28836 0.28835 0.28836 0.28835 0.28887 0.28836 0.28835 0.28836 0.28835 0.28887 0.28836 0.28835 0.28835 0.28836 0.28887 0.28836 0.28835 0.28835 0.28836 0.28887 0.28835 0.28836 0.28835 0.28836 0.28887 0.28835 0.28836 0.28835 0.28836 0.28887 0.28835 0.28836 0.28835 c 8.29627,2.30766 17.14574,3.46181 26.82472,3.46181 25.99499,0 46.73618,-8.36569 62.22256,-25.09615 15.20982,-16.73044 22.95312,-38.36444 22.95312,-65.19085 z" />
</svg>
