<?xml version="1.0" encoding="UTF-8" standalone="no"?>
<!-- Created with Inkscape (http://www.inkscape.org/) -->

<svg
        width="512mm"
        height="512mm"
        viewBox="0 0 512 512"
        version="1.1"
        id="svg1"
        xmlns:xlink="http://www.w3.org/1999/xlink"
        xmlns="http://www.w3.org/2000/svg"
>
  <defs
     id="defs1">
    <linearGradient
       id="linearGradient5">
      <stop
         style="stop-color:#40bf77;stop-opacity:1;"
         offset="0"
         id="stop4" />
      <stop
         style="stop-color:#43895f;stop-opacity:1;"
         offset="1"
         id="stop5" />
    </linearGradient>
    <linearGradient
       id="linearGradient7">
      <stop
         style="stop-color:#00fd6e;stop-opacity:1;"
         offset="0"
         id="stop9" />
      <stop
         style="stop-color:#3ac36f;stop-opacity:1;"
         offset="1"
         id="stop10" />
    </linearGradient>
    <linearGradient
       xlink:href="#linearGradient7"
       id="linearGradient8"
       x1="50"
       y1="231"
       x2="462"
       y2="231"
       gradientUnits="userSpaceOnUse"
       spreadMethod="pad" />
    <linearGradient
       xlink:href="#linearGradient5"
       id="linearGradient3"
       x1="50"
       y1="281"
       x2="462"
       y2="281"
       gradientUnits="userSpaceOnUse" />
  </defs>
  <g
     id="layer1"
     transform="translate(0,5)">
    <g
       id="g7"
       transform="translate(0,-10)">
      <path
         id="rect3"
         style="fill:url(#linearGradient3);fill-opacity:1;stroke-width:1.1864;stroke-linecap:round;stroke-linejoin:round"
         d="M 98.557983,75 H 413.44202 C 440.34314,75 462,96.65686 462,123.55798 V 438.44202 C 462,465.34314 440.34314,487 413.44202,487 H 98.557983 C 71.656861,487 50,465.34314 50,438.44202 V 123.55798 C 50,96.65686 71.656861,75 98.557983,75 Z" />
    </g>
    <path
       id="rect1"
       style="fill:url(#linearGradient8);stroke-width:1.1864;stroke-linecap:round;stroke-linejoin:round"
       d="M 98.557983,25 H 413.44202 C 440.34314,25 462,46.656861 462,73.557983 V 388.44202 C 462,415.34314 440.34314,437 413.44202,437 H 98.557983 C 71.656861,437 50,415.34314 50,388.44202 V 73.557983 C 50,46.656861 71.656861,25 98.557983,25 Z" />
    <g
       id="g6"
       transform="translate(0,10.00001)"
       style="fill:#cdcdcd;fill-opacity:1">
      <path
         d="m 174.49143,314.5744 c -2.51904,-4.31834 -6.47752,-7.73703 -11.51559,-10.436 -5.218,-2.51903 -10.79586,-3.95848 -16.73358,-3.95848 -13.49482,0 -24.65055,3.95848 -33.28723,12.05538 -8.63669,8.27682 -12.955036,19.61248 -12.955036,34.36682 0,15.1142 4.138416,26.80972 12.595166,35.08654 8.45676,8.27683 19.43255,12.23531 33.10731,12.05538 5.39793,0 10.97579,-1.43945 16.73358,-4.31834 5.57786,-2.69897 9.53634,-6.47752 11.87545,-11.33566 v 12.95503 h 21.77165 V 302.33909 H 174.3115 Z m -26.44986,5.218 c 6.65745,0 12.23531,1.97924 16.73358,5.57786 4.49828,3.77855 7.19724,8.27683 8.27683,13.49482 1.07959,5.39793 1.07959,10.61593 0,15.83393 -1.07959,5.218 -3.77855,9.71628 -8.27683,13.3149 -4.49827,3.77855 -10.07613,5.57786 -16.73358,5.57786 -7.5571,0 -13.67476,-2.33911 -18.71282,-7.19724 -5.03807,-4.85814 -7.55711,-11.51559 -7.55711,-19.79241 0,-8.27683 2.51904,-14.75434 7.55711,-19.61248 5.03806,-4.67821 11.15572,-7.19724 18.71282,-7.19724 z m 113.7164,-19.79241 c -5.39793,0 -10.25606,0.89965 -14.21455,2.51903 -4.13841,1.79931 -7.73703,5.03807 -10.79586,10.07614 v -10.25607 h -21.95158 v 88.70598 h 21.95158 v -46.78206 c 0,-7.5571 2.51904,-13.13496 7.55711,-16.91351 5.03806,-3.59862 10.79586,-5.57786 17.4533,-5.57786 z m 92.48467,91.04508 v -47.50178 c 0,-6.11765 1.61938,-11.15572 5.218,-15.47407 3.59862,-4.31834 8.27682,-6.47751 14.03462,-6.47751 5.57786,0 9.71627,2.15917 12.41523,6.11765 2.8789,3.95848 4.13842,9.17648 4.13842,15.47407 v 47.86164 h 21.95158 v -47.86164 c 0,-13.49483 -3.05883,-23.93082 -9.35641,-31.12806 -6.29759,-7.19724 -15.654,-10.9758 -28.24917,-10.9758 -12.95503,0 -22.85124,5.39793 -29.68861,16.19379 -4.49828,-10.97579 -13.3149,-16.55365 -26.26993,-16.55365 -4.67821,0 -9.35641,1.07959 -13.67476,3.05883 -4.31834,1.97924 -7.5571,5.03807 -9.71627,9.17648 l 0.17993,-10.79586 h -22.13151 v 88.88591 h 21.95158 v -47.50178 c 0,-6.11765 1.79931,-11.33565 5.218,-15.654 3.41869,-4.31834 7.91696,-6.65744 13.67475,-6.65744 5.7578,0 10.25607,2.15917 13.49483,6.47751 3.23876,4.31835 4.67821,9.71628 4.67821,15.83393 v 47.50178 z"
         id="text5"
         style="font-weight:bold;font-size:179.931px;line-height:10;font-family:'Vice City Sans Bold';-inkscape-font-specification:'Vice City Sans Bold, Bold';text-align:center;text-anchor:middle;stroke-width:0.499278;stroke-linecap:round;stroke-linejoin:round"
         aria-label="arm" />
      <path
         d="m 294.48621,261.91433 c 8.47311,2.2595 17.5111,3.38924 27.39639,3.38924 26.54908,0 47.73186,-8.19067 63.54833,-24.57202 15.53403,-16.38134 23.44227,-37.56412 23.44227,-63.83076 V 63.643549 h -37.28168 v 34.739752 78.517489 c 0,15.81647 -4.23656,28.80858 -12.70967,38.69387 -8.47311,9.8853 -20.90034,14.68673 -36.99925,14.68673 -11.01504,0 -20.05303,-1.69463 -27.39639,-5.36631 v 2.82437 0.28244 0.28244 0.28243 0.28244 0.28244 0.28243 0.28244 0.28244 0.28244 0.28243 0.28244 0.28244 0.28243 0.28244 0.28244 0.28243 0.28244 0.28244 0.28244 0.28243 0.28244 0.28244 0.28243 0.28244 0.28244 0.28243 0.28244 0.28244 0.28244 0.28243 0.28244 0.28244 0.28243 0.28244 0.28244 0.28243 0.28244 0.28244 0.28244 0.28243 0.28244 0.28244 0.28243 0.28244 0.28244 0.28243 0.28244 0.28244 0.28244 0.28243 0.28244 0.28244 0.28243 0.28244 0.28244 0.28244 0.28243 0.28244 0.28244 0.28243 0.28244 0.28244 0.28243 0.28244 0.28244 0.28244 0.28243 0.28244 0.28244 0.28243 0.28244 0.28244 0.28243 0.28244 0.28244 0.28244 0.28243 0.28244 0.28244 0.28243 0.28244 0.28244 0.28243 0.28244 0.28244 0.28244 0.28243 0.28244 0.28244 0.28243 0.28244 0.28244 0.28243 0.28244 0.28244 0.28244 0.28243 0.28244 0.28244 0.28243 0.28244 0.28244 0.28243 0.28244 0.28244 0.28244 0.28243 0.28244 0.28244 0.28243 0.28244 0.28244 0.28243 0.28244 0.28244 0.28244 0.28243 0.28244 0.28244 0.28243 0.28244 0.28244 0.28243 -0.28243 z"
         id="text6"
         style="font-weight:bold;font-size:282.437px;line-height:10;font-family:'Vice City Sans Bold';-inkscape-font-specification:'Vice City Sans Bold, Bold';text-align:center;text-anchor:middle;stroke-width:6.76508;stroke-linecap:round;stroke-linejoin:round"
         transform="scale(0.97913166,1.0213131)"
         aria-label="J" />
    </g>
    <g
       id="g4">
      <path
         d="m 174.49143,314.5744 c -2.51904,-4.31834 -6.47752,-7.73703 -11.51559,-10.436 -5.218,-2.51903 -10.79586,-3.95848 -16.73358,-3.95848 -13.49482,0 -24.65055,3.95848 -33.28723,12.05538 -8.63669,8.27682 -12.955036,19.61248 -12.955036,34.36682 0,15.1142 4.138416,26.80972 12.595166,35.08654 8.45676,8.27683 19.43255,12.23531 33.10731,12.05538 5.39793,0 10.97579,-1.43945 16.73358,-4.31834 5.57786,-2.69897 9.53634,-6.47752 11.87545,-11.33566 v 12.95503 h 21.77165 V 302.33909 H 174.3115 Z m -26.44986,5.218 c 6.65745,0 12.23531,1.97924 16.73358,5.57786 4.49828,3.77855 7.19724,8.27683 8.27683,13.49482 1.07959,5.39793 1.07959,10.61593 0,15.83393 -1.07959,5.218 -3.77855,9.71628 -8.27683,13.3149 -4.49827,3.77855 -10.07613,5.57786 -16.73358,5.57786 -7.5571,0 -13.67476,-2.33911 -18.71282,-7.19724 -5.03807,-4.85814 -7.55711,-11.51559 -7.55711,-19.79241 0,-8.27683 2.51904,-14.75434 7.55711,-19.61248 5.03806,-4.67821 11.15572,-7.19724 18.71282,-7.19724 z m 113.7164,-19.79241 c -5.39793,0 -10.25606,0.89965 -14.21455,2.51903 -4.13841,1.79931 -7.73703,5.03807 -10.79586,10.07614 v -10.25607 h -21.95158 v 88.70598 h 21.95158 v -46.78206 c 0,-7.5571 2.51904,-13.13496 7.55711,-16.91351 5.03806,-3.59862 10.79586,-5.57786 17.4533,-5.57786 z m 92.48467,91.04508 v -47.50178 c 0,-6.11765 1.61938,-11.15572 5.218,-15.47407 3.59862,-4.31834 8.27682,-6.47751 14.03462,-6.47751 5.57786,0 9.71627,2.15917 12.41523,6.11765 2.8789,3.95848 4.13842,9.17648 4.13842,15.47407 v 47.86164 h 21.95158 v -47.86164 c 0,-13.49483 -3.05883,-23.93082 -9.35641,-31.12806 -6.29759,-7.19724 -15.654,-10.9758 -28.24917,-10.9758 -12.95503,0 -22.85124,5.39793 -29.68861,16.19379 -4.49828,-10.97579 -13.3149,-16.55365 -26.26993,-16.55365 -4.67821,0 -9.35641,1.07959 -13.67476,3.05883 -4.31834,1.97924 -7.5571,5.03807 -9.71627,9.17648 l 0.17993,-10.79586 h -22.13151 v 88.88591 h 21.95158 v -47.50178 c 0,-6.11765 1.79931,-11.33565 5.218,-15.654 3.41869,-4.31834 7.91696,-6.65744 13.67475,-6.65744 5.7578,0 10.25607,2.15917 13.49483,6.47751 3.23876,4.31835 4.67821,9.71628 4.67821,15.83393 v 47.50178 z"
         id="text4"
         style="font-weight:bold;font-size:179.931px;line-height:10;font-family:'Vice City Sans Bold';-inkscape-font-specification:'Vice City Sans Bold, Bold';text-align:center;text-anchor:middle;fill:#ffffff;stroke-width:0.499278;stroke-linecap:round;stroke-linejoin:round"
         aria-label="arm" />
      <path
         d="m 294.48621,261.91433 c 8.47311,2.2595 17.5111,3.38924 27.39639,3.38924 26.54908,0 47.73186,-8.19067 63.54833,-24.57202 15.53403,-16.38134 23.44227,-37.56412 23.44227,-63.83076 V 63.643549 h -37.28168 v 34.739752 78.517489 c 0,15.81647 -4.23656,28.80858 -12.70967,38.69387 -8.47311,9.8853 -20.90034,14.68673 -36.99925,14.68673 -11.01504,0 -20.05303,-1.69463 -27.39639,-5.36631 v 2.82437 0.28244 0.28244 0.28243 0.28244 0.28244 0.28243 0.28244 0.28244 0.28244 0.28243 0.28244 0.28244 0.28243 0.28244 0.28244 0.28243 0.28244 0.28244 0.28244 0.28243 0.28244 0.28244 0.28243 0.28244 0.28244 0.28243 0.28244 0.28244 0.28244 0.28243 0.28244 0.28244 0.28243 0.28244 0.28244 0.28243 0.28244 0.28244 0.28244 0.28243 0.28244 0.28244 0.28243 0.28244 0.28244 0.28243 0.28244 0.28244 0.28244 0.28243 0.28244 0.28244 0.28243 0.28244 0.28244 0.28244 0.28243 0.28244 0.28244 0.28243 0.28244 0.28244 0.28243 0.28244 0.28244 0.28244 0.28243 0.28244 0.28244 0.28243 0.28244 0.28244 0.28243 0.28244 0.28244 0.28244 0.28243 0.28244 0.28244 0.28243 0.28244 0.28244 0.28243 0.28244 0.28244 0.28244 0.28243 0.28244 0.28244 0.28243 0.28244 0.28244 0.28243 0.28244 0.28244 0.28244 0.28243 0.28244 0.28244 0.28243 0.28244 0.28244 0.28243 0.28244 0.28244 0.28244 0.28243 0.28244 0.28244 0.28243 0.28244 0.28244 0.28243 0.28244 0.28244 0.28244 0.28243 0.28244 0.28244 0.28243 0.28244 0.28244 0.28243 -0.28243 z"
         id="text3"
         style="font-weight:bold;font-size:282.437px;line-height:10;font-family:'Vice City Sans Bold';-inkscape-font-specification:'Vice City Sans Bold, Bold';text-align:center;text-anchor:middle;fill:#ffffff;stroke-width:6.76508;stroke-linecap:round;stroke-linejoin:round"
         transform="scale(0.97913166,1.0213131)"
         aria-label="J" />
    </g>
  </g>
</svg>
